<svg xmlns="http://www.w3.org/2000/svg" viewBox="0 0 720 400" width="720" height="400" font-family="-apple-system,'Segoe UI',sans-serif">
<rect width="720" height="400" fill="white"/>
<text x="360.0" y="22" text-anchor="middle" font-size="14" font-weight="700">1 photo vs 2+ photos — mean engagement (n=22,000)</text>
<rect x="70" y="36" width="14" height="10" fill="#3b82f6" stroke="#222" stroke-width="0.3"/><text x="90" y="45" font-size="11">1 photo</text><rect x="160" y="36" width="14" height="10" fill="#ec4899" stroke="#222" stroke-width="0.3"/><text x="180" y="45" font-size="11">2+ photos</text>
<line x1="60" y1="310.0" x2="700" y2="310.0" stroke="#e4e4e7" stroke-dasharray="2,3"/><text x="54.0" y="314.0" text-anchor="end" font-size="10" fill="#666">0</text><line x1="60" y1="247.5" x2="700" y2="247.5" stroke="#e4e4e7" stroke-dasharray="2,3"/><text x="54.0" y="251.5" text-anchor="end" font-size="10" fill="#666">18</text><line x1="60" y1="185.0" x2="700" y2="185.0" stroke="#e4e4e7" stroke-dasharray="2,3"/><text x="54.0" y="189.0" text-anchor="end" font-size="10" fill="#666">36</text><line x1="60" y1="122.5" x2="700" y2="122.5" stroke="#e4e4e7" stroke-dasharray="2,3"/><text x="54.0" y="126.5" text-anchor="end" font-size="10" fill="#666">54</text><line x1="60" y1="60.0" x2="700" y2="60.0" stroke="#e4e4e7" stroke-dasharray="2,3"/><text x="54.0" y="64.0" text-anchor="end" font-size="10" fill="#666">72</text>
<rect x="81.3" y="130.0" width="40.5" height="180.0" fill="#3b82f6" stroke="#222" stroke-width="0.4"/><rect x="209.3" y="281.9" width="40.5" height="28.1" fill="#3b82f6" stroke="#222" stroke-width="0.4"/><rect x="337.3" y="301.5" width="40.5" height="8.5" fill="#3b82f6" stroke="#222" stroke-width="0.4"/><rect x="465.3" y="309.2" width="40.5" height="0.8" fill="#3b82f6" stroke="#222" stroke-width="0.4"/><rect x="593.3" y="92.6" width="40.5" height="217.4" fill="#3b82f6" stroke="#222" stroke-width="0.4"/><rect x="124.0" y="164.8" width="40.5" height="145.2" fill="#ec4899" stroke="#222" stroke-width="0.4"/><rect x="252.0" y="287.3" width="40.5" height="22.7" fill="#ec4899" stroke="#222" stroke-width="0.4"/><rect x="380.0" y="302.8" width="40.5" height="7.2" fill="#ec4899" stroke="#222" stroke-width="0.4"/><rect x="508.0" y="309.3" width="40.5" height="0.7" fill="#ec4899" stroke="#222" stroke-width="0.4"/><rect x="636.0" y="134.3" width="40.5" height="175.7" fill="#ec4899" stroke="#222" stroke-width="0.4"/>
<text x="124.0" y="328" text-anchor="middle" font-size="10">likes</text><text x="252.0" y="328" text-anchor="middle" font-size="10">reposts</text><text x="380.0" y="328" text-anchor="middle" font-size="10">replies</text><text x="508.0" y="328" text-anchor="middle" font-size="10">quotes</text><text x="636.0" y="328" text-anchor="middle" font-size="10">total</text>
<text x="16" y="185.0" text-anchor="middle" font-size="11" fill="#555" transform="rotate(-90, 16, 185.0)">mean</text>
<line x1="60" y1="60" x2="60" y2="310" stroke="#222" stroke-width="0.8"/>
<line x1="60" y1="310" x2="700" y2="310" stroke="#222" stroke-width="0.8"/>
</svg>